<?xml version="1.0" encoding="UTF-8" standalone="no"?>
<svg width="200px" height="200px" viewBox="0 0 200 200" version="1.1" xmlns="http://www.w3.org/2000/svg" xmlns:xlink="http://www.w3.org/1999/xlink">
    <!-- Generator: Sketch 3.8.3 (29802) - http://www.bohemiancoding.com/sketch -->
    <title>Dist-Git</title>
    <desc>Created with Sketch.</desc>
    <defs></defs>
    <g id="Page-1" stroke="none" stroke-width="1" fill="none" fill-rule="evenodd">
        <g id="Dist-Git" stroke="#9B9B9B" stroke-width="4">
            <path d="M86.8445313,87.7489178 C86.8445313,87.7489178 89.8096862,79.0745871 78.7217383,76.3686261 C73.4137735,75.0732425 65.3301917,74.0806453 57.8148656,76.3686261 C50.2995394,78.6566069 51.0185478,92.4651495 51.0185478,92.4651494 C51.0185478,92.4651494 51.0185478,107.409824 51.0185478,113.391999 C51.0185477,119.374174 55.8796702,123.264507 59.2275823,123.264507 L80.8030303,123.264507 C83.6781153,123.264507 85.8450167,109.210973 85.8450167,109.210973 C85.8450167,109.210973 85.8450165,127.188965 85.8450168,131.234127 C85.8450171,135.27929 83.0527298,142.937325 79.7154645,142.937325 L61.4639159,142.937325 C61.4639159,142.937325 51.0185478,142.244852 51.0185478,138.460179 L51.0185478,133.489455" id="Path-1"></path>
            <path d="M100.546625,72.0786842 L100.546625,125.384884" id="Path-2"></path>
            <path d="M100.349832,58 L100.349832,65.3307314" id="Path-3"></path>
            <path d="M124.156718,65 L124.156718,113.589073 C124.156718,113.589073 122.80297,123.535364 128.052987,123.535364 C133.303004,123.535364 140.024102,123.539984 140.024102,123.539984 C140.024102,123.539984 144.877126,122.275383 144.877126,119.035971 C144.877126,115.79656 144.969758,111.880538 144.969758,111.880538" id="Path-4"></path>
            <path d="M113,80 L149.149252,80" id="Path-5"></path>
        </g>
    </g>
</svg>